<svg version="1.1" id="Layer_1" xmlns="http://www.w3.org/2000/svg" xmlns:xlink="http://www.w3.org/1999/xlink" x="0px" y="0px"
	 width="100%" viewBox="0 0 241 209" enable-background="new 0 0 241 209" xml:space="preserve">
<path fill="#000000" opacity="1.000000" stroke="none" 
	d="
M0.999999,197.000000 
	C1.000000,131.702423 1.000000,66.404854 1.000000,1.053640 
	C81.253571,1.053640 161.507187,1.053640 241.880402,1.053640 
	C241.880402,70.548622 241.880402,140.097519 241.880402,209.823212 
	C161.667007,209.823212 81.333511,209.823212 1.000000,209.823212 
	C1.000000,207.653671 1.000000,205.321579 1.229349,202.159515 
	C3.597904,202.499344 5.737111,203.669113 8.348202,204.918564 
	C24.905418,204.997711 40.990749,204.996475 57.076080,204.997025 
	C62.880474,204.997223 68.685387,204.954361 74.489120,205.017670 
	C80.258118,205.080597 86.026642,205.226669 91.794052,205.384338 
	C96.361130,205.509201 100.925880,205.759659 105.492706,205.787827 
	C105.934998,205.790543 106.384544,204.616882 106.902748,203.526276 
	C107.315346,191.643585 107.707237,180.224945 107.934502,168.803009 
	C107.964447,167.298218 107.618187,164.928787 106.655937,164.401245 
	C100.649063,161.108139 98.962395,155.727325 99.055641,149.559479 
	C99.144867,143.657364 99.691330,137.761383 100.102097,131.867249 
	C100.123291,131.563232 100.758415,131.301987 102.248352,130.102661 
	C102.811485,137.322357 103.306839,143.673096 103.802193,150.023834 
	C104.655815,150.050995 105.509445,150.078156 106.363068,150.105316 
	C106.904579,145.464233 107.446091,140.823151 108.329971,136.103851 
	C109.733459,136.355545 110.794579,136.685471 111.916321,137.466187 
	C112.053108,147.418976 112.053108,147.418976 115.402931,150.060226 
	C115.638344,148.136169 115.821419,146.639908 116.384140,144.948547 
	C116.845444,143.119446 116.688332,141.425217 117.080727,139.869598 
	C117.424095,138.508270 118.385139,137.302765 119.073326,136.028427 
	C119.993980,137.019424 120.914635,138.010422 121.906258,139.441925 
	C121.199829,146.618134 122.164215,153.713928 118.009621,159.756073 
	C116.787277,161.533768 114.205170,163.157410 114.194725,164.863586 
	C114.113182,178.182678 114.507011,191.504684 114.757248,204.997681 
	C120.371811,204.997681 125.022438,204.859680 129.660141,205.045105 
	C132.874832,205.173630 134.239838,204.039032 134.027573,200.741302 
	C133.593262,193.993515 132.906387,187.223053 133.089386,180.482712 
	C133.451447,167.147552 134.030090,153.801086 135.142990,140.511536 
	C135.621719,134.794662 136.444595,128.695175 142.167252,123.738914 
	C142.167252,129.812729 142.167252,134.918686 142.094254,140.487000 
	C142.013977,145.037491 141.891769,149.129501 142.031006,153.212601 
	C142.176712,157.486023 142.573608,161.750900 142.919159,166.483383 
	C141.959473,173.565414 144.179947,180.150162 140.916733,187.083221 
	C138.757858,191.669968 140.931992,198.296143 141.232544,204.390411 
	C149.463791,204.847137 157.628693,204.975861 165.793747,204.988037 
	C187.566864,205.020508 209.340118,205.023865 231.113098,204.963593 
	C232.783829,204.958969 234.452911,204.364319 236.467438,204.030457 
	C237.949554,202.552597 240.281052,200.087341 240.029510,199.787247 
	C238.467224,197.923431 236.508820,195.643188 234.336243,195.201675 
	C230.322357,194.385956 225.989655,194.184113 221.940186,194.768570 
	C217.942673,195.345520 216.861832,194.167801 216.968781,190.472946 
	C217.321136,178.299454 213.941650,166.834015 208.516022,156.246201 
	C193.895798,127.715668 170.566116,109.556183 139.736572,101.180260 
	C136.138245,100.202652 135.576355,98.342751 134.976593,95.501106 
	C132.326797,82.946167 121.354187,76.874603 111.947197,83.320648 
	C108.537285,85.657249 107.008240,90.964226 105.062698,95.122528 
	C104.000252,97.393379 104.027008,100.058823 100.928421,100.995377 
	C95.212395,102.723061 89.480103,104.463081 83.915253,106.613693 
	C55.294689,117.674538 37.276424,138.687164 28.138868,167.483917 
	C25.424381,176.038544 24.305317,185.099426 22.684368,192.834778 
	C14.994291,194.311920 7.997144,195.655945 0.999999,197.000000 
M90.981659,25.873882 
	C88.937057,24.133999 88.275482,19.949934 85.385506,20.927174 
	C85.385506,25.067196 86.214043,28.414619 85.208359,31.066416 
	C83.275917,36.161865 80.222420,40.822594 77.781868,45.737106 
	C73.919754,53.514221 69.726654,61.172375 66.536011,69.222664 
	C64.143166,75.260025 69.065880,81.248863 75.162468,80.410866 
	C71.198227,74.066544 73.542114,68.358681 76.720581,62.642452 
	C81.119514,54.731300 85.752052,46.909473 89.479942,38.684708 
	C91.084251,35.145153 90.670433,30.690884 90.981659,25.873882 
M118.756218,4.193217 
	C119.170822,5.380832 119.856453,6.546147 119.956299,7.759661 
	C120.637131,16.034140 115.308350,22.007998 111.822350,28.700548 
	C108.324516,35.415810 104.475815,42.004864 101.660477,49.003082 
	C98.878052,55.919514 102.955063,62.407383 110.228821,63.485027 
	C105.562599,56.625408 107.931961,50.419842 111.300789,44.158684 
	C116.291557,34.883091 121.319901,25.612619 125.852936,16.111290 
	C128.745544,10.048303 124.296364,3.998934 118.809708,2.517332 
	C118.716049,2.492041 118.408630,3.258348 118.756218,4.193217 
M144.048080,49.671982 
	C141.665909,54.944366 138.982513,60.105114 136.976700,65.516991 
	C134.385544,72.508148 137.673859,77.906303 144.180893,79.119797 
	C144.180893,74.674088 143.312531,69.898079 144.416626,65.632629 
	C145.602997,61.049274 148.690613,56.969898 150.860641,52.626648 
	C154.532623,45.277294 158.542114,38.058487 161.624435,30.465990 
	C163.682480,25.396530 160.233856,20.726351 156.106110,20.519928 
	C155.677994,23.866068 156.008286,27.471466 154.692398,30.315113 
	C151.711899,36.756054 147.919998,42.821533 144.048080,49.671982 
z"/>
<path fill="#FF9001" opacity="1.000000" stroke="none" 
	d="
M116.004486,145.143646 
	C115.821419,146.639908 115.638344,148.136169 115.402931,150.060226 
	C112.053108,147.418976 112.053108,147.418976 111.979027,137.015396 
	C111.791901,133.349228 111.709229,130.570114 111.336670,127.830437 
	C111.246361,127.166336 110.274323,126.492180 109.554924,126.111122 
	C109.288147,125.969818 108.158821,126.636971 108.143471,126.968758 
	C108.001617,130.035706 108.017540,133.109940 107.987610,136.182068 
	C107.446091,140.823151 106.904579,145.464233 106.363068,150.105316 
	C105.509445,150.078156 104.655815,150.050995 103.802193,150.023834 
	C103.306839,143.673096 102.811485,137.322357 102.248352,130.102661 
	C100.758415,131.301987 100.123291,131.563232 100.102097,131.867249 
	C99.691330,137.761383 99.144867,143.657364 99.055641,149.559479 
	C98.962395,155.727325 100.649063,161.108139 106.655937,164.401245 
	C107.618187,164.928787 107.964447,167.298218 107.934502,168.803009 
	C107.707237,180.224945 107.315346,191.643585 106.444893,203.527359 
	C74.963562,203.999634 44.012089,203.994598 13.060725,204.051025 
	C11.332116,204.054184 9.604430,204.564606 7.876316,204.838898 
	C5.737111,203.669113 3.597904,202.499344 1.229349,201.664780 
	C1.000000,200.611115 1.000000,199.222214 0.999999,197.416656 
	C7.997144,195.655945 14.994291,194.311920 22.684368,192.834778 
	C24.305317,185.099426 25.424381,176.038544 28.138868,167.483917 
	C37.276424,138.687164 55.294689,117.674538 83.915253,106.613693 
	C89.480103,104.463081 95.212395,102.723061 100.928421,100.995377 
	C104.027008,100.058823 104.000252,97.393379 105.062698,95.122528 
	C107.008240,90.964226 108.537285,85.657249 111.947197,83.320648 
	C121.354187,76.874603 132.326797,82.946167 134.976593,95.501106 
	C135.576355,98.342751 136.138245,100.202652 139.736572,101.180260 
	C170.566116,109.556183 193.895798,127.715668 208.516022,156.246201 
	C213.941650,166.834015 217.321136,178.299454 216.968781,190.472946 
	C216.861832,194.167801 217.942673,195.345520 221.940186,194.768570 
	C225.989655,194.184113 230.322357,194.385956 234.336243,195.201675 
	C236.508820,195.643188 238.467224,197.923431 240.029510,199.787247 
	C240.281052,200.087341 237.949554,202.552597 235.991852,204.002670 
	C203.836487,203.995331 172.501373,204.002304 141.166260,204.009277 
	C140.931992,198.296143 138.757858,191.669968 140.916733,187.083221 
	C144.179947,180.150162 141.959473,173.565414 142.984894,166.017548 
	C142.999557,163.262573 143.072754,161.434753 143.002411,159.612488 
	C142.750290,153.082199 142.449585,146.553757 142.167252,140.024628 
	C142.167252,134.918686 142.167252,129.812729 142.167252,123.738914 
	C136.444595,128.695175 135.621719,134.794662 135.142990,140.511536 
	C134.030090,153.801086 133.451447,167.147552 133.089386,180.482712 
	C132.906387,187.223053 133.593262,193.993515 134.027573,200.741302 
	C134.239838,204.039032 132.874832,205.173630 129.660141,205.045105 
	C125.022438,204.859680 120.371811,204.997681 114.757248,204.997681 
	C114.507011,191.504684 114.113182,178.182678 114.194725,164.863586 
	C114.205170,163.157410 116.787277,161.533768 118.009621,159.756073 
	C122.164215,153.713928 121.199829,146.618134 121.975891,139.023804 
	C121.713669,133.523285 121.650063,128.788956 116.004486,125.375755 
	C116.004486,132.670486 116.004486,138.907074 116.004486,145.143646 
z"/>
<path fill="#FF930C" opacity="1.000000" stroke="none" 
	d="
M91.077560,26.263031 
	C90.670433,30.690884 91.084251,35.145153 89.479942,38.684708 
	C85.752052,46.909473 81.119514,54.731300 76.720581,62.642452 
	C73.542114,68.358681 71.198227,74.066544 75.162468,80.410866 
	C69.065880,81.248863 64.143166,75.260025 66.536011,69.222664 
	C69.726654,61.172375 73.919754,53.514221 77.781868,45.737106 
	C80.222420,40.822594 83.275917,36.161865 85.208359,31.066416 
	C86.214043,28.414619 85.385506,25.067196 85.385506,20.927174 
	C88.275482,19.949934 88.937057,24.133999 91.077560,26.263031 
z"/>
<path fill="#FF9209" opacity="1.000000" stroke="none" 
	d="
M118.478584,3.924244 
	C118.408630,3.258348 118.716049,2.492041 118.809708,2.517332 
	C124.296364,3.998934 128.745544,10.048303 125.852936,16.111290 
	C121.319901,25.612619 116.291557,34.883091 111.300789,44.158684 
	C107.931961,50.419842 105.562599,56.625408 110.228821,63.485027 
	C102.955063,62.407383 98.878052,55.919514 101.660477,49.003082 
	C104.475815,42.004864 108.324516,35.415810 111.822350,28.700548 
	C115.308350,22.007998 120.637131,16.034140 119.956299,7.759661 
	C119.856453,6.546147 119.170822,5.380832 118.478584,3.924244 
z"/>
<path fill="#FF9209" opacity="1.000000" stroke="none" 
	d="
M144.253052,49.355835 
	C147.919998,42.821533 151.711899,36.756054 154.692398,30.315113 
	C156.008286,27.471466 155.677994,23.866068 156.106110,20.519928 
	C160.233856,20.726351 163.682480,25.396530 161.624435,30.465990 
	C158.542114,38.058487 154.532623,45.277294 150.860641,52.626648 
	C148.690613,56.969898 145.602997,61.049274 144.416626,65.632629 
	C143.312531,69.898079 144.180893,74.674088 144.180893,79.119797 
	C137.673859,77.906303 134.385544,72.508148 136.976700,65.516991 
	C138.982513,60.105114 141.665909,54.944366 144.253052,49.355835 
z"/>
<path fill="#F8E3CC" opacity="1.000000" stroke="none" 
	d="
M8.348201,204.918579 
	C9.604430,204.564606 11.332116,204.054184 13.060725,204.051025 
	C44.012089,203.994598 74.963562,203.999634 106.372871,203.990387 
	C106.384544,204.616882 105.934998,205.790543 105.492706,205.787827 
	C100.925880,205.759659 96.361130,205.509201 91.794052,205.384338 
	C86.026642,205.226669 80.258118,205.080597 74.489120,205.017670 
	C68.685387,204.954361 62.880474,204.997223 57.076080,204.997025 
	C40.990749,204.996475 24.905418,204.997711 8.348201,204.918579 
z"/>
<path fill="#F7EEE1" opacity="1.000000" stroke="none" 
	d="
M141.232544,204.390411 
	C172.501373,204.002304 203.836487,203.995331 235.647186,204.016144 
	C234.452911,204.364319 232.783829,204.958969 231.113098,204.963593 
	C209.340118,205.023865 187.566864,205.020508 165.793747,204.988037 
	C157.628693,204.975861 149.463791,204.847137 141.232544,204.390411 
z"/>
<path fill="#FFFBF6" opacity="1.000000" stroke="none" 
	d="
M116.384132,144.948547 
	C116.004486,138.907074 116.004486,132.670486 116.004486,125.375755 
	C121.650063,128.788956 121.713669,133.523285 121.904922,138.583313 
	C120.914635,138.010422 119.993980,137.019424 119.073326,136.028427 
	C118.385139,137.302765 117.424095,138.508270 117.080727,139.869598 
	C116.688332,141.425217 116.845444,143.119446 116.384132,144.948547 
z"/>
<path fill="#FFF9F1" opacity="1.000000" stroke="none" 
	d="
M108.329971,136.103851 
	C108.017540,133.109940 108.001617,130.035706 108.143471,126.968758 
	C108.158821,126.636971 109.288147,125.969818 109.554924,126.111122 
	C110.274323,126.492180 111.246361,127.166336 111.336670,127.830437 
	C111.709229,130.570114 111.791901,133.349228 111.918411,136.564636 
	C110.794579,136.685471 109.733459,136.355545 108.329971,136.103851 
z"/>
<path fill="#FEF9EF" opacity="1.000000" stroke="none" 
	d="
M142.094254,140.487000 
	C142.449585,146.553757 142.750290,153.082199 143.002411,159.612488 
	C143.072754,161.434753 142.999557,163.262573 142.926468,165.553680 
	C142.573608,161.750900 142.176712,157.486023 142.031006,153.212601 
	C141.891769,149.129501 142.013977,145.037491 142.094254,140.487000 
z"/>
</svg>